<svg width="36" height="36" viewBox="0 0 36 36" fill="none" xmlns="http://www.w3.org/2000/svg">
<path d="M28.3959 28.8134C27.1528 27.8209 23.28 25.9112 22.3245 25.6911C21.3709 25.4691 20.2165 26.392 19.8987 27.5379C19.579 28.6845 18.9827 28.576 18.9827 28.576C18.9827 28.576 16.6856 27.7314 12.4838 23.5427C8.28131 19.3527 7.43187 17.057 7.43187 17.057C7.43187 17.057 7.31972 16.4603 8.4649 16.136C9.60761 15.8149 10.526 14.6559 10.3018 13.7016C10.0788 12.7474 8.15503 8.87734 7.15955 7.63882C6.16167 6.40037 4.23413 7.03905 3.81036 7.34787C3.38413 7.65557 -1.09554 10.5055 0.251712 15.7533C1.60072 21.0017 4.49478 25.2004 7.67522 28.3726C10.8563 31.5436 15.0624 34.4237 20.3114 35.754C25.5598 37.0849 28.3916 32.5916 28.6978 32.1651C29.0045 31.7397 29.6353 29.8078 28.3959 28.8134Z" fill="black"/>
<path d="M17.3688 13.2979C18.0649 13.6395 19.1719 14.2732 20.455 15.5566C21.7382 16.8407 22.3708 17.9484 22.712 18.6444C23.0705 19.3761 23.3354 19.5235 23.5498 19.4735C23.9034 19.3915 24.021 19.2966 24.0537 18.5587C24.0808 17.93 23.7802 16.0547 21.8687 14.1419C19.9572 12.229 18.0826 11.9288 17.4556 11.9559C16.7176 11.9874 16.6239 12.1057 16.5421 12.4608C16.4921 12.6741 16.6375 12.9398 17.3688 13.2979Z" fill="black"/>
<path d="M18.4886 5.91481C17.5881 5.91418 17.3607 6.47208 17.3335 6.68845C17.2781 7.12554 17.6003 7.47996 18.2692 7.6717C19.0343 7.89052 22.0651 8.86329 24.6043 11.4043C27.1441 13.9453 28.1168 16.9788 28.3349 17.7445C28.5259 18.4133 28.8794 18.7352 29.3167 18.6803C29.5341 18.6543 30.091 18.4263 30.0898 17.5251C30.0904 16.8118 29.6549 13.0767 26.2939 9.71214C22.9338 6.34937 19.1995 5.91411 18.4886 5.91481Z" fill="black"/>
<path d="M30.7479 5.25634C25.9337 0.438824 20.8548 0.0239664 19.9818 0.00109851C18.9161 -0.0259911 18.4935 0.452404 18.4942 0.943043C18.4935 1.361 18.9217 1.79063 19.5586 1.95465C20.5147 2.19993 24.3044 2.79731 28.7544 7.25056C33.2056 11.7038 33.8014 15.4968 34.0478 16.4542C34.211 17.0904 34.641 17.5194 35.058 17.5194C35.5489 17.5194 36.027 17.0971 35.9987 16.0313C35.9765 15.1572 35.5619 10.0746 30.7479 5.25634Z" fill="black"/>
</svg>
