<svg width="24" height="24" viewBox="0 0 24 24" fill="none" xmlns="http://www.w3.org/2000/svg">
<path d="M11.52 12.2402C8.4768 12.2402 6 9.7634 6 6.7202C6 3.677 8.4768 1.2002 11.52 1.2002C14.5632 1.2002 17.04 3.677 17.04 6.7202C17.04 9.7634 14.5632 12.2402 11.52 12.2402ZM11.52 2.6402C9.2736 2.6402 7.44 4.4738 7.44 6.7202C7.44 8.9666 9.2736 10.8002 11.52 10.8002C13.7664 10.8002 15.6 8.9666 15.6 6.7202C15.6 4.4738 13.7664 2.6402 11.52 2.6402Z" fill="#171717"/>
<path d="M3.27371 21.8397C2.88011 21.8397 2.55371 21.5133 2.55371 21.1197C2.55371 17.0205 6.57614 13.6797 11.5201 13.6797C11.9137 13.6797 12.2401 14.0061 12.2401 14.3997C12.2401 14.7933 11.9137 15.1197 11.5201 15.1197C7.37294 15.1197 3.99371 17.8077 3.99371 21.1197C3.99371 21.5133 3.66731 21.8397 3.27371 21.8397Z" fill="#171717"/>
<path d="M17.6801 18.7197H13.8401V19.6797H17.6801V18.7197Z" stroke="black" stroke-width="0.5"/>
<path d="M20.3199 17.3993C20.3199 16.8029 19.8364 16.3193 19.2399 16.3193C18.6434 16.3193 18.1599 16.8029 18.1599 17.3993V20.9993C18.1599 21.5958 18.6434 22.0793 19.2399 22.0793C19.8364 22.0793 20.3199 21.5958 20.3199 20.9993V17.3993Z" stroke="black"/>
<path d="M11.2001 17.3993C11.2001 16.8029 11.6836 16.3193 12.2801 16.3193C12.8766 16.3193 13.3601 16.8029 13.3601 17.3993V20.9993C13.3601 21.5958 12.8766 22.0793 12.2801 22.0793C11.6836 22.0793 11.2001 21.5958 11.2001 20.9993V17.3993Z" stroke="black"/>
<path d="M21.04 17.2793C21.5702 17.2793 22 17.7091 22 18.2393V20.1593C22 20.6895 21.5702 21.1193 21.04 21.1193V17.2793Z" fill="black"/>
<path d="M10.48 17.2793C9.94983 17.2793 9.52002 17.7091 9.52002 18.2393V20.1593C9.52002 20.6895 9.94983 21.1193 10.48 21.1193V17.2793Z" fill="black"/>
</svg>
