<svg width="20" height="20" viewBox="0 0 20 20" fill="none" xmlns="http://www.w3.org/2000/svg">
<g clip-path="url(#clip0_3045_2677)">
<path d="M5.71387 7.85742H14.2853" stroke="black" stroke-width="1.5" stroke-linecap="round" stroke-linejoin="round"/>
<path d="M5.71387 12.1426H11.4281" stroke="black" stroke-width="1.5" stroke-linecap="round" stroke-linejoin="round"/>
<path d="M9.99688 0.800782C8.33291 0.801448 6.70027 1.25339 5.27282 2.10848C3.84537 2.96357 2.67655 4.18979 1.89083 5.65657C1.1051 7.12335 0.731894 8.77576 0.810946 10.4379C0.889998 12.1 1.41835 13.7095 2.33974 15.0951L0.796875 19.2008L5.96402 18.2679C7.20803 18.8754 8.57309 19.1942 9.95746 19.2007C11.3419 19.2072 12.7099 18.9012 13.9595 18.3055C15.2092 17.7098 16.3083 16.8397 17.1749 15.7602C18.0416 14.6806 18.6534 13.4194 18.9649 12.0705C19.2763 10.7216 19.2793 9.31976 18.9736 7.96954C18.668 6.61932 18.0616 5.35548 17.1995 4.27222C16.3375 3.18896 15.2422 2.31421 13.9951 1.71315C12.748 1.11208 11.3813 0.800215 9.99688 0.800782Z" stroke="black" stroke-width="1.5" stroke-linecap="round" stroke-linejoin="round"/>
</g>
<defs>
<clipPath id="clip0_3045_2677">
<rect width="20" height="20" fill="white"/>
</clipPath>
</defs>
</svg>
