<svg width="150" height="150" viewBox="0 0 150 150" fill="none" xmlns="http://www.w3.org/2000/svg">
<path d="M132.5 120H57.2452C56.0852 114.3 51.0352 110 45.0002 110C38.9652 110 33.9152 114.3 32.7552 120H17.5002C14.1902 120 14.1952 125 17.5002 125H32.7552C33.9152 130.7 38.9652 135 45.0002 135C51.0352 135 56.0852 130.7 57.2452 125H132.5C135.81 125 135.805 120 132.5 120ZM45.0002 130C40.8652 130 37.5002 126.635 37.5002 122.5C37.5002 118.365 40.8652 115 45.0002 115C49.1352 115 52.5002 118.365 52.5002 122.5C52.5002 126.635 49.1352 130 45.0002 130Z" fill="black"/>
<path d="M132.5 72.5H117.245C116.085 66.8 111.035 62.5 105 62.5C98.9652 62.5 93.9152 66.8 92.7552 72.5H17.5002C14.1902 72.5 14.1952 77.5 17.5002 77.5H92.7552C93.9152 83.2 98.9652 87.5 105 87.5C111.035 87.5 116.085 83.2 117.245 77.5H132.5C135.81 77.5 135.805 72.5 132.5 72.5ZM105 82.5C100.865 82.5 97.5002 79.135 97.5002 75C97.5002 70.865 100.865 67.5 105 67.5C109.135 67.5 112.5 70.865 112.5 75C112.5 79.135 109.135 82.5 105 82.5Z" fill="black"/>
<path d="M17.5002 30H57.7552C58.9152 35.7 63.9652 40 70.0002 40C76.0352 40 81.0852 35.7 82.2452 30H132.5C135.81 30 135.805 25 132.5 25H82.2452C81.0852 19.3 76.0352 15 70.0002 15C63.9652 15 58.9152 19.3 57.7552 25H17.5002C14.1902 25 14.1952 30 17.5002 30ZM70.0002 20C74.1352 20 77.5002 23.365 77.5002 27.5C77.5002 31.635 74.1352 35 70.0002 35C65.8652 35 62.5002 31.635 62.5002 27.5C62.5002 23.365 65.8652 20 70.0002 20Z" fill="black"/>
</svg>
