<svg width="150" height="150" viewBox="0 0 150 150" fill="none" xmlns="http://www.w3.org/2000/svg">
<g clip-path="url(#clip0_3003_2761)">
<path d="M140.625 37.5H9.375C4.20625 37.5 0 33.2938 0 28.125V9.375C0 4.20625 4.20625 0 9.375 0H140.625C145.794 0 150 4.20625 150 9.375V28.125C150 33.2938 145.794 37.5 140.625 37.5ZM9.375 6.25C8.5462 6.25 7.75134 6.57924 7.16529 7.16529C6.57924 7.75134 6.25 8.5462 6.25 9.375V28.125C6.25 28.9538 6.57924 29.7487 7.16529 30.3347C7.75134 30.9208 8.5462 31.25 9.375 31.25H140.625C141.454 31.25 142.249 30.9208 142.835 30.3347C143.421 29.7487 143.75 28.9538 143.75 28.125V9.375C143.75 8.5462 143.421 7.75134 142.835 7.16529C142.249 6.57924 141.454 6.25 140.625 6.25H9.375ZM59.375 93.75H9.375C4.20625 93.75 0 89.5438 0 84.375V59.375C0 54.2062 4.20625 50 9.375 50H59.375C64.5438 50 68.75 54.2062 68.75 59.375V84.375C68.75 89.5438 64.5438 93.75 59.375 93.75ZM9.375 56.25C8.5462 56.25 7.75134 56.5792 7.16529 57.1653C6.57924 57.7513 6.25 58.5462 6.25 59.375V84.375C6.25 85.2038 6.57924 85.9987 7.16529 86.5847C7.75134 87.1708 8.5462 87.5 9.375 87.5H59.375C60.2038 87.5 60.9987 87.1708 61.5847 86.5847C62.1708 85.9987 62.5 85.2038 62.5 84.375V59.375C62.5 58.5462 62.1708 57.7513 61.5847 57.1653C60.9987 56.5792 60.2038 56.25 59.375 56.25H9.375ZM59.375 150H9.375C4.20625 150 0 145.794 0 140.625V115.625C0 110.456 4.20625 106.25 9.375 106.25H59.375C64.5438 106.25 68.75 110.456 68.75 115.625V140.625C68.75 145.794 64.5438 150 59.375 150ZM9.375 112.5C8.5462 112.5 7.75134 112.829 7.16529 113.415C6.57924 114.001 6.25 114.796 6.25 115.625V140.625C6.25 141.454 6.57924 142.249 7.16529 142.835C7.75134 143.421 8.5462 143.75 9.375 143.75H59.375C60.2038 143.75 60.9987 143.421 61.5847 142.835C62.1708 142.249 62.5 141.454 62.5 140.625V115.625C62.5 114.796 62.1708 114.001 61.5847 113.415C60.9987 112.829 60.2038 112.5 59.375 112.5H9.375ZM140.625 93.75H90.625C85.4562 93.75 81.25 89.5438 81.25 84.375V59.375C81.25 54.2062 85.4562 50 90.625 50H140.625C145.794 50 150 54.2062 150 59.375V84.375C150 89.5438 145.794 93.75 140.625 93.75ZM90.625 56.25C89.7962 56.25 89.0013 56.5792 88.4153 57.1653C87.8292 57.7513 87.5 58.5462 87.5 59.375V84.375C87.5 85.2038 87.8292 85.9987 88.4153 86.5847C89.0013 87.1708 89.7962 87.5 90.625 87.5H140.625C141.454 87.5 142.249 87.1708 142.835 86.5847C143.421 85.9987 143.75 85.2038 143.75 84.375V59.375C143.75 58.5462 143.421 57.7513 142.835 57.1653C142.249 56.5792 141.454 56.25 140.625 56.25H90.625ZM140.625 150H90.625C85.4562 150 81.25 145.794 81.25 140.625V115.625C81.25 110.456 85.4562 106.25 90.625 106.25H140.625C145.794 106.25 150 110.456 150 115.625V140.625C150 145.794 145.794 150 140.625 150ZM90.625 112.5C89.7962 112.5 89.0013 112.829 88.4153 113.415C87.8292 114.001 87.5 114.796 87.5 115.625V140.625C87.5 141.454 87.8292 142.249 88.4153 142.835C89.0013 143.421 89.7962 143.75 90.625 143.75H140.625C141.454 143.75 142.249 143.421 142.835 142.835C143.421 142.249 143.75 141.454 143.75 140.625V115.625C143.75 114.796 143.421 114.001 142.835 113.415C142.249 112.829 141.454 112.5 140.625 112.5H90.625Z" fill="black"/>
</g>
<defs>
<clipPath id="clip0_3003_2761">
<rect width="150" height="150" fill="white"/>
</clipPath>
</defs>
</svg>
