<svg width="272" height="80" viewBox="0 0 272 80" fill="none" xmlns="http://www.w3.org/2000/svg">
<g clip-path="url(#clip0_2991_2688)">
<path d="M72.8403 62.0763H80.9997V64.8141H75.646V66.7523H80.1323V69.3005H75.646V73.0549H72.8403V62.0763ZM90.4874 62.0763V73.0549H87.6682V62.0763H90.4874ZM96.9661 62.0763H106.63V64.8141H103.214V73.0549H100.395V64.8006H96.9797V62.0763H96.9661ZM113.109 73.0549V62.0763H115.508L120.414 68.2161V62.0763H123.22V73.0549H120.834L115.928 66.9285V73.0549H113.109ZM130.363 62.0763H138.793V64.8141H133.168V66.3864H137.79V68.9345H133.168V70.3441H138.793V73.0549H130.363V62.0763ZM147.928 69.7613V69.8291C147.928 69.9375 147.969 70.0459 148.037 70.1543C148.118 70.2763 148.227 70.3848 148.376 70.4796C148.525 70.5745 148.715 70.6558 148.959 70.7236C149.189 70.7914 149.474 70.8185 149.785 70.8185C150.314 70.8185 150.68 70.7507 150.883 70.6016C151.086 70.4525 151.181 70.3034 151.181 70.1408C151.181 69.9104 151.032 69.7071 150.748 69.5309C150.287 69.2869 149.799 69.0971 149.311 68.9345C148.864 68.799 148.416 68.6228 147.942 68.433C147.484 68.2469 147.047 68.0105 146.641 67.7282C146.248 67.4571 145.922 67.1047 145.665 66.6981C145.425 66.2622 145.293 65.7754 145.279 65.278C145.264 64.7807 145.369 64.2871 145.584 63.8383C145.8 63.4181 146.085 63.0657 146.465 62.7675C146.844 62.4693 147.291 62.2389 147.82 62.0898C148.966 61.7513 150.185 61.7513 151.33 62.0898C151.886 62.2525 152.347 62.4964 152.754 62.7946C153.147 63.1064 153.472 63.4723 153.702 63.9196C153.933 64.3533 154.041 64.8413 154.041 65.397V65.5461H151.29V65.4647C151.29 65.3292 151.249 65.1937 151.181 65.0581C151.114 64.9226 151.005 64.787 150.87 64.6786C150.734 64.5702 150.558 64.4753 150.341 64.4075C150.124 64.3398 149.88 64.2991 149.596 64.2991C149.121 64.2991 148.769 64.3804 148.565 64.5295C148.362 64.6786 148.254 64.8548 148.254 65.0446C148.254 65.2343 148.389 65.4376 148.674 65.6003C148.945 65.7494 149.419 65.9391 150.07 66.1695L151.358 66.6575C151.832 66.8472 152.279 67.0912 152.699 67.3894C153.12 67.6876 153.472 68.04 153.757 68.4737C154.041 68.9074 154.19 69.4089 154.19 70.0188C154.211 70.4967 154.107 70.9718 153.889 71.3973C153.67 71.8227 153.344 72.1838 152.943 72.4449C152.519 72.726 152.052 72.9365 151.561 73.0684C149.852 73.4911 148.047 73.254 146.505 72.4043C146.099 72.1332 145.76 71.7673 145.516 71.3471C145.271 70.9086 145.15 70.4122 145.163 69.9104V69.7884H147.928V69.7613ZM163.244 69.7613V69.8291C163.244 69.9375 163.285 70.0459 163.353 70.1543C163.434 70.2763 163.542 70.3848 163.692 70.4796C163.841 70.5745 164.03 70.6558 164.274 70.7236C164.505 70.7914 164.789 70.8185 165.101 70.8185C165.63 70.8185 165.996 70.7507 166.199 70.6016C166.402 70.4525 166.497 70.3034 166.497 70.1408C166.497 69.9104 166.348 69.7071 166.063 69.5309C165.603 69.2869 165.115 69.0971 164.627 68.9345C164.179 68.799 163.732 68.6228 163.258 68.433C162.783 68.2433 162.35 67.9993 161.957 67.7282C161.564 67.4571 161.238 67.1047 160.981 66.6981C160.741 66.2622 160.608 65.7754 160.594 65.278C160.58 64.7807 160.685 64.2871 160.899 63.8383C161.116 63.4181 161.401 63.0657 161.78 62.7675C162.16 62.4693 162.607 62.2389 163.136 62.0898C164.281 61.7513 165.501 61.7513 166.646 62.0898C167.202 62.2525 167.663 62.4964 168.069 62.7946C168.462 63.1064 168.788 63.4723 169.018 63.9196C169.249 64.3533 169.357 64.8413 169.357 65.397V65.5461H166.606V65.4647C166.606 65.3292 166.565 65.1937 166.497 65.0581C166.429 64.9226 166.321 64.787 166.185 64.6786C166.05 64.5702 165.874 64.4753 165.657 64.4075C165.44 64.3398 165.196 64.2991 164.911 64.2991C164.437 64.2991 164.085 64.3804 163.881 64.5295C163.678 64.6786 163.57 64.8548 163.57 65.0446C163.57 65.2343 163.705 65.4376 163.99 65.6003C164.261 65.7494 164.735 65.9391 165.386 66.1695L166.673 66.6575C167.148 66.8472 167.595 67.0912 168.015 67.3894C168.435 67.6876 168.788 68.04 169.072 68.4737C169.357 68.9074 169.506 69.4089 169.506 70.0188C169.527 70.4967 169.423 70.9718 169.204 71.3973C168.986 71.8227 168.66 72.1838 168.259 72.4449C167.835 72.726 167.368 72.9365 166.877 73.0684C165.168 73.4911 163.363 73.254 161.821 72.4043C161.414 72.1332 161.076 71.7673 160.832 71.3471C160.587 70.9086 160.465 70.4122 160.479 69.9104V69.7884H163.244V69.7613ZM187.966 69.7613V69.8291C187.966 69.9375 188.007 70.0459 188.075 70.1543C188.156 70.2763 188.265 70.3848 188.414 70.4796C188.563 70.5745 188.753 70.6558 188.996 70.7236C189.227 70.7914 189.512 70.8185 189.823 70.8185C190.352 70.8185 190.718 70.7507 190.921 70.6016C191.124 70.4525 191.219 70.3034 191.219 70.1408C191.219 69.9104 191.07 69.7071 190.786 69.5309C190.325 69.2869 189.837 69.0971 189.349 68.9345C188.902 68.799 188.454 68.6228 187.98 68.433C187.506 68.2433 187.072 67.9993 186.679 67.7282C186.286 67.4571 185.96 67.1047 185.703 66.6981C185.463 66.2622 185.331 65.7754 185.316 65.278C185.302 64.7807 185.407 64.2871 185.622 63.8383C185.838 63.4181 186.123 63.0657 186.503 62.7675C186.882 62.4693 187.329 62.2389 187.858 62.0898C189.004 61.7513 190.223 61.7513 191.368 62.0898C191.924 62.2525 192.385 62.4964 192.792 62.7946C193.185 63.1064 193.51 63.4723 193.74 63.9196C193.971 64.3533 194.079 64.8413 194.079 65.397V65.5461H191.328V65.4647C191.328 65.3292 191.287 65.1937 191.219 65.0581C191.152 64.9226 191.043 64.787 190.908 64.6786C190.772 64.5702 190.596 64.4753 190.379 64.4075C190.162 64.3398 189.918 64.2991 189.634 64.2991C189.159 64.2991 188.807 64.3804 188.603 64.5295C188.4 64.6786 188.292 64.8548 188.292 65.0446C188.292 65.2343 188.427 65.4376 188.712 65.6003C188.983 65.7494 189.457 65.9391 190.108 66.1695L191.395 66.6575C191.87 66.8472 192.317 67.0912 192.737 67.3894C193.157 67.6876 193.51 68.04 193.795 68.4737C194.079 68.9074 194.228 69.4089 194.228 70.0188C194.249 70.4967 194.145 70.9718 193.927 71.3973C193.708 71.8227 193.382 72.1838 192.981 72.4449C192.557 72.726 192.09 72.9365 191.599 73.0684C189.89 73.4911 188.085 73.254 186.543 72.4043C186.137 72.1332 185.798 71.7673 185.554 71.3471C185.309 70.9086 185.188 70.4122 185.201 69.9104V69.7884H187.966V69.7613ZM200.287 62.0763H209.951V64.8141H206.535V73.0549H203.716V64.8006H200.3V62.0763H200.287ZM226.364 62.0763V68.2568C226.364 68.9616 226.256 69.6122 226.039 70.2221C225.832 70.8235 225.495 71.3721 225.052 71.8288C224.61 72.2856 224.072 72.6394 223.477 72.8651C222.854 73.1226 222.122 73.2582 221.309 73.2582C220.563 73.2582 219.818 73.1362 219.127 72.8651C218.542 72.6283 218.013 72.2704 217.576 71.8149C217.14 71.3594 216.804 70.8165 216.592 70.2221C216.377 69.5893 216.267 68.9253 216.267 68.2568V62.0763H219.086V68.0942C219.086 68.8938 219.276 69.5038 219.655 69.9239C220.035 70.3441 220.59 70.561 221.322 70.561C222.054 70.561 222.623 70.3441 223.003 69.9239C223.382 69.5038 223.572 68.8938 223.572 68.0942V62.0763H226.364ZM233.372 62.0763H238.468C239.322 62.0763 240.081 62.2254 240.731 62.51C241.382 62.7946 241.924 63.2012 242.358 63.7027C242.792 64.2178 243.13 64.8141 243.334 65.4512C243.781 66.8299 243.781 68.3148 243.334 69.6935C243.13 70.3305 242.792 70.9269 242.358 71.442C241.911 71.9519 241.355 72.3548 240.731 72.6211C240.013 72.9193 239.24 73.0684 238.468 73.0549H233.372V62.0763ZM236.177 64.8006V70.3441H238.251C238.671 70.3441 239.051 70.2763 239.362 70.1408C239.688 70.0053 239.945 69.8155 240.162 69.5715C240.379 69.3276 240.542 69.0429 240.65 68.7041C240.758 68.3652 240.813 67.9857 240.813 67.5791C240.813 66.7523 240.596 66.0882 240.162 65.5732C239.728 65.0717 239.091 64.8141 238.251 64.8141H236.177V64.8006ZM253.16 62.0763V73.0549H250.341V62.0763H253.16ZM259.802 67.5656C259.802 66.7794 259.951 66.034 260.262 65.3427C260.903 63.9554 262.052 62.8669 263.472 62.3019C264.892 61.737 266.474 61.7387 267.893 62.3067C268.955 62.7171 269.867 63.4391 270.51 64.3777C271.154 65.3163 271.498 66.4276 271.498 67.5656C271.498 68.7035 271.154 69.8148 270.51 70.7534C269.867 71.692 268.955 72.414 267.893 72.8244C267.179 73.126 266.412 73.2814 265.636 73.2814C264.861 73.2814 264.094 73.126 263.38 72.8244C261.996 72.2401 260.883 71.1562 260.262 69.7884C259.95 69.0896 259.792 68.3311 259.802 67.5656ZM262.648 67.5656C262.646 68.3573 262.958 69.1175 263.515 69.68C263.866 70.0183 264.294 70.2672 264.761 70.4054C265.229 70.5436 265.723 70.5672 266.202 70.4742C266.68 70.3811 267.13 70.1741 267.511 69.8707C267.893 69.5673 268.196 69.1765 268.395 68.7312C268.623 68.1824 268.684 67.5785 268.571 66.9952C268.457 66.4118 268.175 65.8747 267.758 65.4512C267.187 64.9036 266.427 64.5979 265.636 64.5979C264.846 64.5979 264.086 64.9036 263.515 65.4512C262.958 66.0136 262.646 66.7738 262.648 67.5656Z" fill="#990000"/>
<path fill-rule="evenodd" clip-rule="evenodd" d="M263.814 46.8553V50.325H266.646C267.161 50.3928 267.676 50.2166 268.029 49.8371C268.354 49.5118 268.517 49.0374 268.463 48.6173C268.463 47.4381 267.826 46.8553 266.646 46.8553H263.814ZM266.863 43.8192C268.463 43.8192 269.696 44.2529 270.496 45.1475C271.338 46.0804 271.781 47.3069 271.729 48.563C271.731 49.4564 271.512 50.3364 271.092 51.1247C270.654 51.902 269.98 52.5193 269.167 52.8867L272 56.8444H267.988L265.535 53.3746H263.827V56.8444H260.52V43.8057H266.863V43.8192Z" fill="black"/>
<path fill-rule="evenodd" clip-rule="evenodd" d="M247.847 43.8193H257.891V47.0723H251.222V48.9427H256.725V51.9923H251.222V53.6458H257.891V56.8445H247.847V43.8193Z" fill="black"/>
<path fill-rule="evenodd" clip-rule="evenodd" d="M244.906 43.8193V56.8581H241.545V51.9923H236.204V56.8581H232.897V43.8193H236.204V48.8885H241.545V43.8193H244.906Z" fill="black"/>
<path fill-rule="evenodd" clip-rule="evenodd" d="M219.262 43.8193H230.756V47.0723H226.69V56.8988H223.315V47.0723H219.249V43.8193" fill="black"/>
<path fill-rule="evenodd" clip-rule="evenodd" d="M208.514 52.8462C209.011 53.3419 209.644 53.6792 210.332 53.8155C211.021 53.9518 211.735 53.8809 212.383 53.6119C213.031 53.3429 213.585 52.8877 213.975 52.3039C214.365 51.7201 214.573 51.0339 214.573 50.332C214.573 49.63 214.365 48.9438 213.975 48.36C213.585 47.7763 213.031 47.3211 212.383 47.0521C211.735 46.783 211.021 46.7122 210.332 46.8484C209.644 46.9847 209.011 47.322 208.514 47.8177C207.836 48.4683 207.443 49.3764 207.443 50.3252C207.511 51.274 207.877 52.1821 208.514 52.8327V52.8462ZM206.169 45.5272C207.472 44.245 209.227 43.5264 211.055 43.5264C212.883 43.5264 214.638 44.245 215.942 45.5272C217.207 46.7551 217.934 48.434 217.964 50.1968C217.995 51.9595 217.326 53.6625 216.104 54.9335L215.942 55.0961C214.638 56.3783 212.883 57.0969 211.055 57.0969C209.227 57.0969 207.472 56.3783 206.169 55.0961C204.907 53.8812 204.175 52.2165 204.135 50.4647C204.094 48.713 204.747 47.0162 205.952 45.744L206.169 45.5272Z" fill="black"/>
<path fill-rule="evenodd" clip-rule="evenodd" d="M259.016 28.0967V41.1354H255.654V36.2832H250.314V41.1354H247.007V28.0967H250.314V33.1794H255.654V28.0967H259.016Z" fill="black"/>
<path fill-rule="evenodd" clip-rule="evenodd" d="M244.906 37.6661C244.405 38.6323 243.685 39.4675 242.803 40.1045C241.921 40.7416 240.902 41.1628 239.827 41.3341C238.753 41.5055 237.653 41.4224 236.617 41.0913C235.58 40.7603 234.636 40.1906 233.86 39.4281C232.597 38.2131 231.866 36.5485 231.825 34.7967C231.785 33.045 232.438 31.3482 233.643 30.076L233.86 29.8591C234.965 28.7727 236.403 28.0876 237.943 27.9132C239.483 27.7388 241.037 28.0851 242.358 28.8968C243.442 29.5339 244.337 30.4555 244.92 31.5669L241.883 32.9494C241.568 32.4056 241.126 31.9454 240.596 31.6076C240.054 31.2552 239.43 31.0654 238.78 31.079C238.317 31.093 237.861 31.1981 237.439 31.3883C237.017 31.5785 236.636 31.85 236.319 32.1873C236.002 32.5247 235.754 32.9212 235.59 33.3543C235.427 33.7874 235.35 34.2486 235.364 34.7114V34.7656C235.398 35.6608 235.768 36.5102 236.402 37.1436C237.035 37.777 237.885 38.1476 238.78 38.1812C240.067 38.1812 241.287 37.4899 241.924 36.3108L244.906 37.6661Z" fill="black"/>
<path fill-rule="evenodd" clip-rule="evenodd" d="M224.345 32.3797L222.895 36.229H225.781L224.345 32.3797ZM225.998 28.0967L231.284 41.1354H227.652L226.961 39.2108H221.837L221.146 41.1354H217.514L222.8 28.0967H225.998Z" fill="black"/>
<path fill-rule="evenodd" clip-rule="evenodd" d="M205.803 28.0967H215.847V31.3631H209.178V33.2336H214.681V36.2696H209.178V37.9232H215.847V41.1219H205.803V28.0967Z" fill="black"/>
<path fill-rule="evenodd" clip-rule="evenodd" d="M235.188 12.4561H246.682V15.7225H242.615V25.549H239.308V15.7225H235.242L235.188 12.4561Z" fill="black"/>
<path fill-rule="evenodd" clip-rule="evenodd" d="M223.925 12.4561H233.602V15.7225H227.245V18.0267H232.586V21.0627H227.245V25.549H223.938V12.4561" fill="black"/>
<path fill-rule="evenodd" clip-rule="evenodd" d="M220.929 12.4561V25.549H217.568V12.5103H220.929V12.4561Z" fill="black"/>
<path fill-rule="evenodd" clip-rule="evenodd" d="M205.803 12.4561H209.11V22.2826H215.359V25.4813H205.749L205.803 12.4561Z" fill="black"/>
<path fill-rule="evenodd" clip-rule="evenodd" d="M166.768 43.2638C167.869 44.4002 169.191 45.2992 170.653 45.9053C172.114 46.5113 173.684 46.8117 175.266 46.7878C178.479 46.8556 181.569 45.6086 183.819 43.318C184.95 42.2047 185.842 40.8716 186.439 39.4008C187.035 37.9299 187.325 36.3525 187.289 34.7656C187.314 33.2117 187.033 31.668 186.461 30.2228C185.889 28.7776 185.039 27.4591 183.958 26.3427C182.876 25.2263 181.586 24.3338 180.16 23.7162C178.734 23.0987 177.2 22.7681 175.646 22.7433H175.266C173.685 22.7227 172.116 23.0245 170.654 23.6303C169.193 24.2362 167.871 25.1335 166.768 26.2673C165.629 27.3658 164.727 28.6873 164.121 30.1494C163.515 31.6116 163.216 33.183 163.244 34.7656C163.244 38.0863 164.423 40.919 166.768 43.2638ZM158.758 18.5823C160.922 16.4166 163.498 14.7052 166.332 13.5484C169.167 12.3916 172.205 11.8129 175.266 11.8461C181.732 11.8461 187.234 14.096 191.829 18.5823C196.424 23.0686 198.728 28.463 198.728 34.7656C198.728 41.0681 196.424 46.4625 191.829 50.9488C189.663 53.1273 187.08 54.8467 184.234 56.0041C181.388 57.1615 178.338 57.7332 175.266 57.6851C168.855 57.6851 163.353 55.4351 158.758 50.9488C154.163 46.4625 151.818 41.0681 151.818 34.7656C151.818 28.463 154.109 23.0686 158.758 18.5823Z" fill="black"/>
<path fill-rule="evenodd" clip-rule="evenodd" d="M112.173 12.6592H146.153V23.6649H123.559V30.0216H142.154V40.2683H123.559V45.9338H146.153V56.8853H112.173V12.6592Z" fill="black"/>
<path fill-rule="evenodd" clip-rule="evenodd" d="M72 12.6592H83.2768V45.9473H104.488V56.8988H72V12.6592Z" fill="black"/>
</g>
<g clip-path="url(#clip1_2991_2688)">
<path fill-rule="evenodd" clip-rule="evenodd" d="M53.2559 48.4883C52.6745 51.3952 51.1628 53.1394 48.6047 53.9534C51.5117 51.8604 52.2094 48.8371 51.9768 45.2324C51.8605 44.1859 52.2094 43.0231 52.5582 41.9766C54.3024 35.3487 52.6745 31.0464 47.0931 27.9069C46.7442 27.6743 46.3954 27.558 46.1628 27.2092C49.6512 27.9069 52.907 29.0697 54.7675 32.6743C56.1628 35.3487 56.2791 38.0231 55.2326 40.8138C54.4187 43.372 53.721 45.9301 53.2559 48.4883ZM46.3954 47.0929C47.2094 43.6045 47.3256 40.5813 43.8373 39.0697C45.9303 38.6045 48.0233 39.4185 48.9535 40.9301C49.7675 42.3255 49.0698 44.3022 46.3954 47.0929ZM41.8605 37.558C41.5117 36.9766 41.1628 36.5115 40.814 36.0464C40.4652 35.3487 40.6977 34.7673 41.5117 34.7673C42.2094 34.7673 42.7908 34.7673 43.4884 34.7673C43.9535 34.7673 44.4187 34.5348 45.0001 34.4185C44.3024 34.0697 43.9535 33.9534 43.4884 33.6045C43.1396 33.372 43.1396 33.0231 43.2559 32.7906C43.3721 32.558 43.721 32.4417 43.9535 32.558C44.7675 32.7906 45.6977 33.1394 46.5117 33.372C46.5117 33.372 47.2094 31.8604 43.8373 30.8138C43.1396 30.5813 45.3489 31.0464 46.0466 31.1627C45.6977 30.2324 44.7675 29.6511 43.3721 29.5348C42.2094 29.5348 41.1628 29.5348 39.8838 29.5348C42.7908 27.3255 45.814 27.7906 47.7907 30.3487C48.4884 31.279 48.721 32.2092 48.6047 33.372C48.4884 34.1859 48.1396 34.6511 47.4419 34.8836C46.3954 35.2324 45.2326 35.5813 44.0698 35.9301C43.1396 36.1627 42.3256 36.5115 41.8605 37.558ZM40.1163 34.1859C39.5349 33.6045 39.0698 33.0231 38.4884 32.4417C39.1861 32.4417 39.7675 32.4417 40.5815 32.4417C39.6512 31.7441 38.8373 31.1627 37.907 30.465L38.0233 30.3487C39.4187 30.8138 40.814 31.279 42.3256 31.8604C41.8605 32.7906 40.0001 32.4417 40.1163 34.1859ZM35.6977 32.3255L35.5814 32.4417C35.2326 33.0231 34.7675 33.4883 34.1861 33.9534C33.2559 34.7673 32.6745 35.9301 32.5582 37.2092C32.5582 38.0231 32.3256 38.9534 32.3256 39.7673C32.3256 41.1627 31.628 42.2092 30.6977 43.0231C29.3024 44.4185 28.6047 46.0464 28.1396 47.9069C27.7908 49.4185 27.4419 50.9301 26.8605 52.3255C26.628 52.9069 26.1628 53.4883 25.814 54.0697H27.2094C26.8605 54.5348 26.628 54.7673 25.5814 55.3487C25.814 55.465 25.9303 55.5813 26.628 55.3487C26.0466 56.1627 24.7675 56.3952 23.9535 56.279C24.3024 56.6278 24.5349 56.8604 24.7675 57.0929L21.5117 56.3952V57.2092C20.5814 56.5115 19.7675 55.8138 18.9535 55.2324L20.9303 55.1162C21.3954 55.1162 21.7442 54.9999 22.2094 54.8836C23.4884 54.5348 24.4187 53.8371 25.0001 52.4417C28.1396 45.3487 26.8605 38.7208 22.6745 32.558C22.5582 32.4417 22.4419 32.2092 22.3256 31.9766C23.1396 31.6278 23.3721 31.0464 23.721 30.2324C23.721 30.1162 24.1861 28.7208 24.8838 27.558C25.9303 28.2557 26.7442 28.1394 27.5582 27.4417C26.9768 27.2092 26.2791 27.4417 25.814 27.0929C26.1628 26.9766 26.3954 26.8604 26.7442 26.7441C27.3256 26.5115 27.907 26.3952 28.4884 26.3952C28.6047 26.3952 28.6047 26.3952 28.721 26.3952C29.4187 26.3952 30.1163 26.3952 30.814 26.5115C30.6977 26.1627 30.5814 25.9301 30.2326 25.8138C30.6977 25.8138 31.1628 25.8138 31.628 25.8138C30.1163 25.1162 28.721 24.1859 27.0931 23.9534C26.3954 23.8371 25.9303 24.1859 25.3489 24.5348C25.1163 24.651 25.0001 24.7673 24.7675 24.7673C23.6047 24.1859 22.6745 23.6045 22.4419 23.6045C25.1163 22.2092 31.7442 23.7208 35.0001 25.9301C35.9303 26.6278 36.5117 27.7906 36.5117 28.9534C36.7442 30.2324 36.3954 31.3952 35.6977 32.3255ZM17.907 53.9534C18.1396 53.8371 18.4884 53.7208 18.721 53.7208C18.9535 53.7208 19.1861 53.7208 19.4187 53.8371C20.814 54.1859 22.0931 54.0697 23.2559 53.0231C23.3721 52.9069 23.6047 52.7906 23.8373 52.6743C23.1396 53.9534 22.2094 54.7673 20.6977 54.6511C20.0001 54.6511 19.4187 54.7673 18.721 54.6511C18.3721 54.5348 18.1396 54.1859 17.907 53.9534ZM16.1628 49.7673C16.9768 50.3487 17.6745 50.9301 18.3721 51.5115C18.2559 51.8604 18.0233 52.3255 17.7907 52.9069C16.7442 52.0929 16.1628 51.1627 16.1628 49.7673ZM13.3721 56.6278C12.4419 54.0697 14.6512 46.8604 16.9768 44.8836C15.4652 48.9534 13.6047 52.4417 13.3721 56.6278ZM13.0233 44.3022C13.3721 42.3255 15.2326 41.0464 17.0931 40.2324L13.0233 44.3022ZM16.2791 31.1627C16.2791 30.9301 16.5117 30.6976 16.7442 30.5813C17.2094 30.465 17.7907 30.3487 18.0233 31.1627C18.1396 31.3952 18.0233 31.6278 18.0233 31.8604C17.3256 33.8371 16.8605 35.3487 16.8605 35.3487C16.7442 35.3487 15.814 33.7208 16.2791 31.1627ZM16.0466 29.9999C15.814 29.9999 15.814 29.6511 15.814 29.6511C19.6512 29.1859 21.5117 32.558 21.5117 32.558L20.4652 31.9766L20.3489 31.8604C20.2326 31.1627 19.0698 30.8138 18.9535 30.6976C18.721 30.5813 18.1396 30.1162 17.7907 29.9999C17.5582 29.8836 17.2094 29.8836 16.8605 29.8836C16.628 29.9999 16.2791 30.1162 16.0466 29.9999ZM15.4652 34.4185C15.1163 34.4185 14.8838 34.1859 14.8838 33.8371V33.6045C14.8838 33.4883 14.7675 33.372 14.6512 33.372C14.4187 33.372 14.3024 33.2557 14.3024 33.0231V32.0929C15.814 32.4417 15.9303 34.4185 15.9303 34.4185H15.4652ZM13.9535 31.3952C13.9535 31.3952 13.2559 30.6976 13.2559 30.1162H13.8373C13.8373 30.1162 13.8373 30.5813 13.9535 30.9301V31.3952ZM13.6047 31.8604C13.6047 31.8604 12.7907 32.6743 12.5582 34.7673C12.5582 34.7673 11.628 33.9534 11.7442 31.6278L12.0931 32.0929L12.5582 31.5115L12.907 31.8604L13.3721 31.3952C13.3721 31.5115 13.721 31.3952 13.6047 31.8604ZM11.9768 30.2324L12.0931 31.5115C12.0931 31.5115 11.5117 31.1627 11.3954 30.3487L11.9768 30.2324ZM13.0233 30.1162V31.279C13.0233 31.279 12.3256 30.8138 12.3256 30.1162H13.0233ZM13.1396 25.465C13.1396 24.7673 12.7907 23.9534 13.6047 23.7208C14.8838 23.2557 15.6977 23.4883 16.2791 24.6511C14.7675 23.372 13.721 23.7208 13.1396 25.465ZM15.2326 30.3487C15.2326 30.6976 15.1163 31.279 14.8838 31.3952C14.8838 31.3952 14.3024 30.9301 14.1861 29.8836C14.1861 29.8836 14.7675 29.5348 15.1163 29.8836C15.2326 30.1162 15.2326 30.2324 15.2326 30.3487ZM19.7675 45.3487C19.5349 46.0464 18.9535 45.9301 18.9535 45.9301V44.6511L19.7675 45.3487ZM19.4187 43.0231H20.2326L19.8838 44.3022L19.4187 43.0231ZM19.8838 32.0929C20.9303 32.2092 21.2791 33.1394 21.2791 33.1394L20.1163 33.6045C20.0001 33.6045 19.8838 32.0929 19.8838 32.0929ZM18.721 31.5115C19.1861 31.5115 19.5349 32.3255 19.5349 32.6743C19.5349 33.1394 18.8373 33.1394 18.8373 33.1394L18.721 31.5115ZM20.4652 41.279L20.3489 42.0929L19.3024 41.9766L17.907 38.2557L20.4652 41.279ZM20.4652 53.1394C18.9535 53.2557 18.8373 53.1394 18.9535 51.9766C19.4187 52.3255 19.8838 52.6743 20.4652 53.1394ZM20.0001 50.3487L21.9768 51.279C22.2094 51.5115 21.9768 52.0929 22.0931 52.558C21.7442 52.558 21.1628 52.558 21.0466 52.3255C20.5814 51.7441 20.3489 51.0464 20.0001 50.3487ZM22.7908 51.7441C22.907 51.279 22.907 50.8138 23.0233 50.6976C24.5349 49.5348 24.8838 47.9069 25.0001 46.1627C25.0001 45.8138 25.1163 45.5813 25.1163 45.2324C25.5814 47.6743 25.2326 49.9999 22.7908 51.7441ZM21.8605 47.0929C21.9768 46.1627 22.0931 45.3487 22.2094 44.4185C22.6745 42.4418 23.8373 41.3952 25.6977 41.1627C25.4652 41.5115 25.6977 41.6278 25.2326 41.8604C24.5349 42.3255 24.4187 43.1394 24.4187 43.9534C24.4187 45.1162 24.3024 46.3952 24.3024 47.558C24.3024 47.9069 24.1861 48.2557 24.0698 48.4883C22.6745 50.6976 22.0931 50.8138 20.4652 49.4185C20.2326 49.3022 20.1163 49.1859 19.7675 48.9534C19.7675 49.6511 19.7675 50.2324 19.7675 50.8138C19.0698 50.8138 18.6047 50.6976 18.3721 49.9999C18.0233 49.3022 17.6745 48.372 18.4884 47.9069C20.4652 46.6278 20.9303 44.7673 21.3954 42.558C21.8605 40.5813 23.4884 39.6511 25.814 39.8836C25.4652 40.1162 25.2326 40.2324 25.1163 40.2324C22.6745 41.0464 21.9768 41.9766 21.7442 44.6511C21.628 45.9301 21.3954 47.0929 21.2791 48.372C21.7442 48.372 21.7442 47.6743 21.8605 47.0929ZM26.5117 25.1162C27.0931 24.9999 27.6745 24.9999 28.3721 25.3487C27.3256 26.5115 26.2791 26.6278 24.5349 26.0464C24.8838 25.9301 25.1163 25.8138 25.3489 25.5813C25.3489 25.9301 25.6977 26.1627 26.0466 26.1627C26.3954 26.1627 26.7442 25.8138 26.7442 25.465C26.628 25.3487 26.628 25.2324 26.5117 25.1162ZM10.6977 29.0697C10.4652 28.372 10.5814 27.6743 11.0466 26.9766C11.2791 26.6278 11.5117 26.3952 11.628 26.279C11.5117 24.8836 11.7442 23.9534 12.2094 23.372C12.3256 23.1394 12.4419 23.0231 12.6745 23.0231C12.6745 23.0231 12.6745 23.0231 12.7907 23.0231C13.0233 22.9069 13.1396 22.9069 13.2559 22.9069C15.0001 22.558 18.9535 23.1394 21.3954 24.4185C21.5117 24.4185 21.628 24.5348 21.7442 24.5348C21.9768 24.651 22.3256 24.8836 22.3256 24.8836L22.4419 25.6976C22.5582 25.9301 22.6745 26.279 22.907 26.3952C23.3721 26.8604 23.9535 27.0929 24.4187 27.558L24.5349 27.6743L23.1396 30.465C23.0233 30.6976 22.907 30.9301 22.7908 31.0464C22.3256 31.6278 21.8605 31.7441 21.2791 31.279C20.6977 30.6976 20.1163 30.2324 19.4187 29.7673C18.9535 29.4185 18.3721 29.1859 17.7907 29.0697C16.7442 28.8371 15.6977 28.6045 14.6512 28.372C13.4884 28.0231 13.3721 27.4417 14.0698 26.3952C14.8838 25.2324 16.1628 25.2324 17.4419 24.9999C18.0233 24.8836 18.721 24.6511 19.3024 24.4185C19.3024 24.3022 19.1861 24.1859 19.1861 24.0697C18.1396 24.1859 17.3256 24.0697 16.3954 23.372C16.1628 23.2557 15.814 23.1394 15.4652 23.2557C15.1163 23.2557 14.7675 23.372 14.4187 23.372L13.721 23.4883C13.3721 23.6045 13.1396 23.7208 12.907 24.0697C12.6745 24.5348 12.4419 25.2324 12.5582 26.6278V26.7441C13.0233 27.3255 12.7907 27.7906 12.0931 28.372C11.628 28.4883 11.1628 28.8371 10.6977 29.0697ZM51.628 21.8604C50.1163 22.4417 48.4884 22.6743 46.9768 23.0231C46.7442 23.0231 46.628 23.1394 46.3954 23.1394C48.1396 23.6045 49.7675 25.1162 50.814 27.6743C46.8605 24.1859 42.7908 26.0464 38.6047 27.558C38.8373 27.2092 42.7907 20.8138 46.628 20.465C47.5582 20.3487 48.6047 20.3487 49.8838 19.9999C46.7442 16.8604 42.907 14.4185 38.4884 13.0231C38.8373 14.0697 39.5349 14.9999 40.6977 15.9301C41.628 16.7441 42.3256 17.7906 42.6745 18.8371C43.2559 20.3487 41.5117 22.0929 38.4884 23.0231C39.8838 21.8604 40.9303 21.279 40.9303 20.3487C41.0466 18.7208 39.0698 17.558 38.2559 16.7441C37.0931 15.5813 36.628 14.1859 36.8605 12.6743C34.6512 12.0929 32.3256 11.8604 30.0001 11.8604C29.7675 11.8604 29.5349 11.8604 29.1861 11.8604C29.3024 11.8604 29.6512 11.9766 30.0001 12.0929C32.2094 12.6743 34.1861 13.8371 35.814 15.465C36.1628 15.8138 36.3954 16.1627 36.628 16.5115C38.0233 19.3022 37.4419 21.9766 34.6512 25.2324C35.814 21.8604 35.1163 18.9534 33.2559 16.8604C32.5582 16.0464 31.628 15.465 30.2326 14.7673C29.1861 14.1859 27.3256 13.8371 25.4652 12.558C25.2326 12.4417 25.1163 12.3255 24.8838 12.0929C22.5582 12.558 20.3489 13.2557 18.2559 14.1859C19.3024 14.651 20.3489 14.8836 21.7442 14.8836C24.7675 14.0697 27.6745 14.9999 30.3489 16.6278C32.6745 18.1394 32.4419 20.8138 32.0931 23.7208C32.0931 23.7208 30.0001 16.5115 18.8373 21.9766C17.4419 22.6743 24.8838 17.4417 25.6977 17.558L23.9535 16.9766C22.7908 16.7441 21.5117 16.6278 20.3489 16.8604C20.0001 16.8604 19.7675 16.9766 19.6512 17.0929C18.1396 17.7906 16.8605 19.1859 15.4652 21.7441C16.7442 18.8371 16.628 17.4417 18.721 16.1627C18.0233 15.8138 17.3256 15.465 16.7442 14.9999C8.02331 19.6511 1.97679 28.7208 1.86052 39.3022C1.74424 48.4883 5.93028 56.7441 12.5582 61.9766C12.0931 60.8138 11.628 59.6511 11.5117 58.372C11.2791 56.8604 11.1628 55.2324 11.2791 53.7208C11.2791 53.372 11.3954 52.9069 11.3954 52.558C11.3954 52.2092 11.5117 51.7441 11.628 51.3952C11.7442 50.5813 11.9768 49.8836 12.2094 49.0697C12.3256 48.6045 12.4419 48.2557 12.5582 47.7906C12.3256 47.9069 12.0931 47.9069 11.8605 47.7906C11.7442 47.7906 11.7442 47.6743 11.7442 47.6743C11.5117 47.3255 11.2791 46.8604 11.1628 46.3952C11.0466 46.1627 11.0466 45.9301 11.0466 45.6976C11.0466 45.465 11.0466 45.2324 11.0466 44.9999C11.0466 44.5348 11.1628 44.0697 11.2791 43.6045C11.3954 43.1394 11.628 42.7906 11.8605 42.3255C12.3256 41.5115 12.907 40.9301 13.6047 40.3487C13.9535 40.1162 14.3024 39.7673 14.6512 39.5348C14.8838 39.4185 15.0001 39.3022 15.2326 39.1859C15.3489 39.0697 15.4652 39.0697 15.4652 39.0697C15.1163 38.6045 14.7675 38.1394 14.4187 37.6743L13.8373 36.8604C13.6047 36.5115 13.3721 36.279 13.2559 35.9301C13.4884 36.1627 13.721 36.3952 14.0698 36.7441L14.7675 37.558C15.2326 38.0231 15.6977 38.6045 16.2791 39.0697C16.3954 39.1859 16.3954 39.3022 16.2791 39.4185C15.9303 39.6511 15.5814 39.8836 15.3489 40.1162C15.0001 40.3487 14.7675 40.5813 14.4187 40.9301C13.8373 41.5115 13.3721 42.0929 12.907 42.7906C12.6745 43.1394 12.5582 43.4883 12.4419 43.8371C12.3256 44.1859 12.3256 44.5348 12.3256 44.8836C12.3256 45.1162 12.3256 45.2324 12.3256 45.465C12.3256 45.6976 12.4419 45.8138 12.4419 46.0464C12.4419 46.1627 12.4419 46.1627 12.5582 46.279C12.6745 46.1627 12.7907 45.9301 12.907 45.8138L13.8373 44.5348C13.9535 44.3022 14.3024 44.1859 14.5349 44.4185L14.7675 44.5348C15.0001 44.6511 15.1163 44.9999 15.0001 45.3487C15.0001 45.465 14.8838 45.465 14.8838 45.5813L14.7675 45.8138C14.6512 45.9301 14.6512 46.1627 14.5349 46.279C14.4187 46.6278 14.1861 46.9766 14.0698 47.3255C13.8373 48.0231 13.4884 48.7208 13.2559 49.4185C12.7907 50.8138 12.4419 52.3255 12.2094 53.7208C11.9768 55.2324 11.9768 56.7441 12.0931 58.2557C12.2094 59.5348 12.4419 60.1162 12.7907 61.279C13.3721 59.4185 13.6047 59.0697 14.4187 57.9069C14.4187 59.4185 14.4187 60.5813 14.5349 62.3255C14.5349 62.7906 14.6512 63.1394 14.8838 63.6045C16.5117 64.6511 18.2559 65.5813 20.1163 66.1627C20.814 65.2324 22.2094 64.3022 24.3024 63.372C23.4884 64.5348 22.6745 65.6976 22.3256 66.8604C23.4884 67.2092 24.6512 67.4417 25.9303 67.558C26.2791 66.3952 26.8605 65.3487 27.4419 64.3022C29.3024 61.3952 30.3489 61.1627 32.6745 58.6045C37.5582 53.1394 38.3721 48.9534 35.3489 42.6743C39.0698 43.7208 40.0001 48.0231 37.907 54.5348C40.0001 53.2557 41.5117 48.6045 41.0466 46.0464C40.4652 42.6743 38.3721 40.5813 35.4652 38.9534C40.0001 38.9534 44.1861 43.4883 44.3024 48.2557C44.4187 51.1627 43.4884 53.7208 41.3954 55.6976C38.4884 58.372 35.4652 60.6976 32.4419 63.1394C30.6977 64.5348 29.0698 66.0464 28.0233 67.9069C28.6047 67.9069 29.1861 68.0231 29.7675 68.0231C31.8605 68.0231 33.8373 67.7906 35.6977 67.4417C36.2791 65.2324 37.5582 63.4883 39.8838 61.8604C42.2094 60.3487 43.721 59.5348 45.1163 56.9766C45.9303 55.465 46.1628 53.4883 46.3954 50.3487C47.4419 53.1394 47.7908 56.0464 46.3954 58.6045C45.3489 60.3487 43.9535 62.0929 42.3256 63.4883C40.5815 64.9999 39.1861 65.6976 38.3721 66.8604C49.7675 63.1394 58.1396 52.4417 58.1396 39.7673C58.1396 33.0231 55.6977 26.7441 51.628 21.8604Z" fill="#990000"/>
<path fill-rule="evenodd" clip-rule="evenodd" d="M30 69.3021C22.093 69.3021 14.7674 66.2788 9.18605 60.6974C3.60465 55.116 0.581395 47.7904 0.581395 39.8835C0.581395 31.9765 3.60465 24.6509 9.18605 19.0695C14.7674 13.3718 22.093 10.3486 30 10.3486C37.907 10.3486 45.2326 13.3718 50.814 18.9532C56.3954 24.5346 59.4186 31.8602 59.4186 39.7672C59.4186 47.6741 56.3954 54.9997 50.814 60.5811C45.2326 66.1625 37.907 69.3021 30 69.3021ZM51.1628 61.0462C56.8605 55.3486 60 47.9067 60 39.8835C60 32.9067 57.6744 26.2788 53.2558 20.93C54.5349 19.8834 55.4651 18.3718 56.1628 16.6276C54.8837 17.5579 53.8372 18.8369 52.5581 19.3021C52.4419 19.4183 52.2093 19.4183 52.093 19.5346C51.8605 19.3021 51.6279 18.9532 51.2791 18.7207C47.6744 14.9997 43.3721 12.4416 38.6047 11.0462C38.7209 10.3486 38.9535 9.53461 39.5349 8.72066C39.7674 8.25554 39.8837 8.13926 40.3488 7.55787C38.8372 8.37182 37.7907 9.53461 37.3256 10.6974C35 10.116 32.4419 9.76717 30 9.76717C28.6047 9.76717 27.2093 9.88345 25.814 9.99973C25.4651 9.76717 25 9.53461 24.5349 9.30205C23.2558 8.4881 22.2093 6.86019 21.0465 5.46484C21.5116 7.44159 22.2093 9.06949 23.3721 10.4648C20.9302 11.0462 18.6047 11.9765 16.3954 13.023C15.1163 12.3253 13.4884 9.99973 13.4884 9.99973C13.9535 11.3951 14.5349 12.5579 15.3488 13.6044C12.907 14.9997 10.6977 16.6276 8.72093 18.6044C3.13953 24.3021 0 31.8602 0 39.8835C0 47.9067 3.13953 55.4648 8.83721 61.0462C10.1163 62.3253 11.6279 63.4881 13.0233 64.5346C13.4884 66.0462 14.3023 67.5579 15.4651 68.8369C20.1163 74.1858 16.8605 78.6044 16.8605 78.6044C19.5349 75.5811 20.5814 72.209 17.7907 68.2555C17.4419 67.7904 17.093 67.209 16.6279 66.6276C17.5581 67.0928 18.4884 67.4416 19.4186 67.9067C19.4186 68.023 19.4186 68.1393 19.4186 68.2555C19.6512 69.9997 21.2791 71.6276 23.3721 71.9765C22.3256 70.93 21.9767 69.7672 21.8605 68.7207C23.0233 69.0695 24.0698 69.3021 25.2326 69.4183C24.4186 73.3718 25 77.5579 27.5581 79.4183C26.3954 77.3253 25.814 74.9997 26.1628 72.5579C26.2791 71.5114 26.6279 70.5811 26.9767 69.7672C27.907 69.8835 28.9535 69.8835 29.8837 69.8835C31.7442 69.8835 33.6047 69.7672 35.3488 69.4183C35.3488 71.8602 37.4419 75.116 37.4419 75.116C36.7442 71.6276 37.093 69.7672 37.3256 69.0695C42.5581 67.5579 47.3256 64.8835 51.1628 61.0462Z" fill="#990000"/>
</g>
<defs>
<clipPath id="clip0_2991_2688">
<rect width="200" height="73.2719" fill="white" transform="translate(72)"/>
</clipPath>
<clipPath id="clip1_2991_2688">
<rect width="60" height="74.4186" fill="white" transform="translate(0 5)"/>
</clipPath>
</defs>
</svg>
