<svg width="50" height="34" viewBox="0 0 50 34" fill="none" xmlns="http://www.w3.org/2000/svg">
<g clip-path="url(#clip0_3045_2704)">
<path d="M0.283719 16.0749L10.2388 5.01372C10.4511 4.77922 10.7476 4.64648 11.0617 4.64648H17.6984C18.1342 4.64648 18.5302 4.9031 18.7094 5.30131C18.8864 5.70172 18.8134 6.1685 18.5214 6.49149L9.23221 16.8138L18.5214 27.1339C18.8134 27.4591 18.8886 27.9258 18.7094 28.324C18.5302 28.7245 18.1342 28.9811 17.6984 28.9811H11.0617C10.7476 28.9811 10.4511 28.8461 10.2388 28.6161L0.283719 17.5549C-0.0945731 17.1346 -0.0945731 16.493 0.283719 16.0749Z" fill="#B5B5B5"/>
<path d="M31.4781 15.8542L41.4332 4.79301C41.6456 4.55852 41.942 4.42578 42.2561 4.42578H48.8928C49.3286 4.42578 49.7246 4.6824 49.9038 5.0806C50.0808 5.48102 50.0078 5.9478 49.7158 6.27079L40.4266 16.5931L49.7158 26.9132C50.0078 27.2383 50.083 27.7051 49.9038 28.1033C49.7246 28.5037 49.3286 28.7604 48.8928 28.7604H42.2561C41.942 28.7604 41.6456 28.6254 41.4332 28.3953L31.4781 17.3342C31.0998 16.9138 31.0998 16.2723 31.4781 15.8542Z" fill="black"/>
<mask id="mask0_3045_2704" style="mask-type:luminance" maskUnits="userSpaceOnUse" x="16" y="0" width="34" height="34">
<path d="M16.1516 0H49.3369V33.1853H16.1516V0Z" fill="white"/>
</mask>
<g mask="url(#mask0_3045_2704)">
<path d="M16.4351 15.8542L26.3901 4.79301C26.6025 4.55852 26.899 4.42578 27.2131 4.42578H33.8498C34.2856 4.42578 34.6816 4.6824 34.8608 5.0806C35.0378 5.48102 34.9648 5.9478 34.6727 6.27079L25.3836 16.5931L34.6727 26.9132C34.9648 27.2384 35.04 27.7051 34.8608 28.1033C34.6816 28.5037 34.2856 28.7604 33.8498 28.7604H27.2131C26.899 28.7604 26.6025 28.6254 26.3901 28.3953L16.4351 17.3342C16.0568 16.9138 16.0568 16.2723 16.4351 15.8542Z" fill="#818181"/>
</g>
</g>
<defs>
<clipPath id="clip0_3045_2704">
<rect width="50" height="34" fill="white"/>
</clipPath>
</defs>
</svg>
