<svg width="24" height="24" viewBox="0 0 24 24" fill="none" xmlns="http://www.w3.org/2000/svg">
<path d="M23 16.3263V4.04307C23 2.82186 21.971 1.91613 20.7215 2.0179H20.6585C18.4535 2.20108 15.104 3.28999 13.235 4.42978L13.0565 4.54172C12.752 4.72491 12.248 4.72491 11.9435 4.54172L11.681 4.38907C9.812 3.25946 6.473 2.18073 4.268 2.00773C3.0185 1.90596 2 2.82186 2 4.03289V16.3263C2 17.3033 2.819 18.2192 3.827 18.3413L4.1315 18.382C6.41 18.6772 9.9275 19.7966 11.9435 20.8652L11.9855 20.8855C12.269 21.0382 12.7205 21.0382 12.9935 20.8855C15.0095 19.8068 18.5375 18.6772 20.8265 18.382L21.173 18.3413C22.181 18.2192 23 17.3033 23 16.3263Z" stroke="black" stroke-width="1.5" stroke-linecap="round" stroke-linejoin="round"/>
<rect x="10.5" y="10.5" width="4" height="1" stroke="black"/>
<rect x="15" y="8" width="2.25" height="6" rx="1.125" stroke="black" stroke-width="1.3"/>
<rect width="2.25" height="6" rx="1.125" transform="matrix(-1 0 0 1 10 8)" stroke="black" stroke-width="1.3"/>
<path d="M18 9V9C18.5523 9 19 9.44772 19 10V12C19 12.5523 18.5523 13 18 13V13V9Z" fill="black"/>
<path d="M7 9V9C6.44772 9 6 9.44772 6 10V12C6 12.5523 6.44772 13 7 13V13V9Z" fill="black"/>
</svg>
