<svg width="23" height="29" viewBox="0 0 23 29" fill="none" xmlns="http://www.w3.org/2000/svg">
<path d="M4.85567 18.8418H2.45508V28.6116H4.85567V18.8418Z" fill="black"/>
<path d="M9.65743 16.8867H7.25684V28.6105H9.65743V16.8867Z" fill="black"/>
<path d="M14.4582 14.9336H12.0576V28.6114H14.4582V14.9336Z" fill="black"/>
<path d="M19.2598 11.8066H16.915V28.6107H19.2598V11.8066Z" fill="black"/>
<path d="M20.1411 4.67103L2.64752 14.6066C2.43943 14.7248 2.17583 14.6521 2.05764 14.444C1.93946 14.2359 2.01209 13.9723 2.22018 13.8542L18.805 4.43476L15.2252 3.44834C14.9948 3.38485 14.8593 3.14619 14.9228 2.91577C14.9862 2.68536 15.2249 2.54981 15.4553 2.6133L20.0434 3.87756C20.213 3.92429 20.3362 4.06733 20.3576 4.24179C20.3783 4.41508 20.2928 4.5849 20.1411 4.67103Z" fill="black"/>
<path d="M18.8752 9.26332C18.7788 9.31807 18.6617 9.33638 18.5467 9.30371C18.3163 9.24022 18.1807 9.00156 18.2442 8.77114L19.51 4.17749C19.5735 3.94707 19.8122 3.81153 20.0426 3.87502C20.273 3.93851 20.4086 4.17717 20.3451 4.40759L19.0793 9.00124C19.0473 9.11737 18.9716 9.20856 18.8752 9.26332Z" fill="black"/>
</svg>
