<svg width="20" height="20" viewBox="0 0 20 20" fill="none" xmlns="http://www.w3.org/2000/svg">
<path d="M13.3571 18.7293V15.3721H16.0428C16.399 15.3721 16.7406 15.2306 16.9924 14.9788C17.2441 14.7269 17.3857 14.3854 17.3857 14.0292V8.65779C17.3854 7.34517 17.0353 6.05635 16.3716 4.92397C15.7078 3.79159 14.7541 2.85659 13.6089 2.2152C12.4637 1.57382 11.1682 1.24923 9.85583 1.27484C8.54348 1.30046 7.26166 1.67536 6.14232 2.36095C5.02299 3.04654 4.1066 4.01805 3.48746 5.17546C2.86834 6.33288 2.56886 7.63439 2.61983 8.946C2.67082 10.2576 3.07043 11.532 3.77752 12.6378C4.48462 13.7437 5.47366 14.6411 6.64283 15.2378V18.7293" stroke="black" stroke-width="1.5" stroke-linecap="round" stroke-linejoin="round"/>
<path d="M5.97168 6.97891L10.0002 4.62891L14.0288 6.97891V11.0074L10.0002 13.3574L5.97168 11.0074V6.97891Z" stroke="black" stroke-width="1.5" stroke-linecap="round" stroke-linejoin="round"/>
<path d="M9.32812 8.9937C9.32812 9.17177 9.39887 9.34255 9.52479 9.46847C9.65071 9.59438 9.82148 9.66512 9.99955 9.66512C10.1776 9.66512 10.3484 9.59438 10.4743 9.46847C10.6002 9.34255 10.6709 9.17177 10.6709 8.9937C10.6709 8.81562 10.6002 8.64484 10.4743 8.51892C10.3484 8.39301 10.1776 8.32227 9.99955 8.32227C9.82148 8.32227 9.65071 8.39301 9.52479 8.51892C9.39887 8.64484 9.32812 8.81562 9.32812 8.9937Z" stroke="black" stroke-width="1.5" stroke-linecap="round" stroke-linejoin="round"/>
</svg>
