<?xml version="1.0" encoding="UTF-8" standalone="no"?>
<!-- Created with Inkscape (http://www.inkscape.org/) -->

<svg
   version="1.1"
   id="svg1986"
   xml:space="preserve"
   width="682.66669"
   height="682.66669"
   viewBox="0 0 682.66669 682.66669"
   xmlns="http://www.w3.org/2000/svg"
   xmlns:svg="http://www.w3.org/2000/svg"><defs
     id="defs1990"><clipPath
       clipPathUnits="userSpaceOnUse"
       id="clipPath2000"><path
         d="M 0,512 H 512 V 0 H 0 Z"
         id="path1998" /></clipPath></defs><g
     id="g1992"
     transform="matrix(1.3333333,0,0,-1.3333333,0,682.66667)"><g
       id="g1994"><g
         id="g1996"
         clip-path="url(#clipPath2000)"><g
           id="g2002"
           transform="translate(91.5386,108.25)"><path
             d="M 0,0 V 0 C -42.271,0 -76.539,-34.268 -76.539,-76.538 V -93.25 H 76.538 v 16.712 C 76.538,-34.268 42.271,0 0,0 Z"
             style="fill:none;stroke:#000000;stroke-width:30;stroke-linecap:round;stroke-linejoin:round;stroke-miterlimit:10;stroke-dasharray:none;stroke-opacity:1"
             id="path2004" /></g><g
           id="g2006"
           transform="translate(136.5386,153.25)"><path
             d="m 0,0 c 0,-24.853 -20.147,-45 -45,-45 -24.853,0 -45,20.147 -45,45 0,24.853 20.147,45 45,45 C -20.147,45 0,24.853 0,0 Z"
             style="fill:none;stroke:#000000;stroke-width:30;stroke-linecap:round;stroke-linejoin:round;stroke-miterlimit:10;stroke-dasharray:none;stroke-opacity:1"
             id="path2008" /></g><g
           id="g2010"
           transform="translate(420.4614,108.25)"><path
             d="M 0,0 V 0 C -42.271,0 -76.538,-34.268 -76.538,-76.538 V -93.25 H 76.539 v 16.712 C 76.539,-34.268 42.271,0 0,0 Z"
             style="fill:none;stroke:#000000;stroke-width:30;stroke-linecap:round;stroke-linejoin:round;stroke-miterlimit:10;stroke-dasharray:none;stroke-opacity:1"
             id="path2012" /></g><g
           id="g2014"
           transform="translate(465.4614,153.25)"><path
             d="m 0,0 c 0,-24.853 -20.147,-45 -45,-45 -24.853,0 -45,20.147 -45,45 0,24.853 20.147,45 45,45 C -20.147,45 0,24.853 0,0 Z"
             style="fill:none;stroke:#000000;stroke-width:30;stroke-linecap:round;stroke-linejoin:round;stroke-miterlimit:10;stroke-dasharray:none;stroke-opacity:1"
             id="path2016" /></g><g
           id="g2018"
           transform="translate(256,407)"><path
             d="M 0,0 V 0 C -42.271,0 -76.539,-34.268 -76.539,-76.538 V -93.25 H 76.539 v 16.712 C 76.539,-34.268 42.271,0 0,0 Z"
             style="fill:none;stroke:#000000;stroke-width:30;stroke-linecap:round;stroke-linejoin:round;stroke-miterlimit:10;stroke-dasharray:none;stroke-opacity:1"
             id="path2020" /></g><g
           id="g2022"
           transform="translate(301,452)"><path
             d="m 0,0 c 0,-24.853 -20.147,-45 -45,-45 -24.853,0 -45,20.147 -45,45 0,24.853 20.147,45 45,45 C -20.147,45 0,24.853 0,0 Z"
             style="fill:none;stroke:#000000;stroke-width:30;stroke-linecap:round;stroke-linejoin:round;stroke-miterlimit:10;stroke-dasharray:none;stroke-opacity:1"
             id="path2024" /></g><g
           id="g2026"
           transform="translate(191.2402,118.0098)"><path
             d="m 0,0 c 19.98,-6.319 41.5,-9.76 63.94,-9.76 23.25,0 45.52,3.691 66.1,10.45"
             style="fill:none;stroke:#000000;stroke-width:30;stroke-linecap:round;stroke-linejoin:round;stroke-miterlimit:10;stroke-dasharray:none;stroke-opacity:1"
             id="path2028" /></g><g
           id="g2030"
           transform="translate(128.1401,376.8906)"><path
             d="M 0,0 C -15.087,-14.543 -28.379,-31.814 -39.086,-51.535 -50.18,-71.968 -57.564,-93.3 -61.443,-114.611"
             style="fill:none;stroke:#000000;stroke-width:30;stroke-linecap:round;stroke-linejoin:round;stroke-miterlimit:10;stroke-dasharray:none;stroke-opacity:1"
             id="path2032" /></g><g
           id="g2034"
           transform="translate(445.3027,262.2793)"><path
             d="m 0,0 c -3.879,21.312 -11.263,42.644 -22.356,63.076 -10.708,19.721 -23.999,36.992 -39.087,51.535"
             style="fill:none;stroke:#000000;stroke-width:30;stroke-linecap:round;stroke-linejoin:round;stroke-miterlimit:10;stroke-dasharray:none;stroke-opacity:1"
             id="path2036" /></g></g></g></g></svg>
