<svg width="150" height="150" viewBox="0 0 150 150" fill="none" xmlns="http://www.w3.org/2000/svg">
<path d="M91.4062 56.25V60.9375C94.5029 60.974 97.4625 62.2204 99.6523 64.4102C101.842 66.6 103.088 69.5596 103.125 72.6562H105.469H107.812C107.77 68.3183 106.028 64.1701 102.96 61.1025C99.8924 58.035 95.7442 56.2927 91.4062 56.25Z" fill="black"/>
<path d="M114.984 72.9141H117.328C117.322 66.0302 114.593 59.4283 109.736 54.5498C104.879 49.6712 98.29 46.9121 91.4062 46.875V51.5625C97.0427 51.5996 102.436 53.8615 106.413 57.856C110.39 61.8504 112.628 67.254 112.641 72.8906L114.984 72.9141Z" fill="black"/>
<path d="M126.727 72.8437C126.677 63.4892 122.941 54.5315 116.329 47.9146C109.716 41.2976 100.761 37.5554 91.4063 37.5H91.2656L91.4063 42.1875C99.5521 42.2494 107.343 45.5287 113.081 51.3107C118.819 57.0928 122.039 64.9086 122.039 73.0547L126.727 72.8437Z" fill="black"/>
<path d="M42.1875 72.8438H46.875C46.9115 69.7471 48.1579 66.7875 50.3477 64.5977C52.5375 62.4079 55.4971 61.1615 58.5938 61.125V56.4375C54.2558 56.4802 50.1076 58.2225 47.04 61.29C43.9725 64.3576 42.2302 68.5058 42.1875 72.8438Z" fill="black"/>
<path d="M58.5938 46.875C51.716 46.9182 45.1336 49.676 40.2789 54.5482C35.4243 59.4204 32.6903 66.0127 32.6719 72.8906H37.3594C37.3716 67.254 39.6098 61.8504 43.5867 57.856C47.5636 53.8615 52.9573 51.5996 58.5938 51.5625V46.875Z" fill="black"/>
<path d="M58.7578 39.8438L58.5937 37.5C49.2231 37.5556 40.2538 41.3107 33.6386 47.9479C27.0234 54.585 23.298 63.5667 23.2734 72.9375H25.6172L27.9609 72.7969C28.0163 64.6918 31.2621 56.9348 36.9956 51.2057C42.7291 45.4766 50.4886 42.2366 58.5937 42.1875H58.7344L58.7578 39.8438Z" fill="black"/>
<path d="M142.969 4.6875H119.531C118.91 4.6875 118.314 4.93443 117.874 5.37397C117.434 5.81351 117.188 6.40965 117.188 7.03125V16.4062H100.781V11.7188C100.781 11.0971 100.534 10.501 100.095 10.0615C99.6552 9.62193 99.0591 9.375 98.4375 9.375H51.5625C50.9409 9.375 50.3448 9.62193 49.9052 10.0615C49.4657 10.501 49.2188 11.0971 49.2188 11.7188V16.4062H32.8125V7.03125C32.8125 6.40965 32.5656 5.81351 32.126 5.37397C31.6865 4.93443 31.0904 4.6875 30.4688 4.6875H7.03125C6.40965 4.6875 5.81351 4.93443 5.37397 5.37397C4.93443 5.81351 4.6875 6.40965 4.6875 7.03125V30.4688C4.6875 31.0904 4.93443 31.6865 5.37397 32.126C5.81351 32.5656 6.40965 32.8125 7.03125 32.8125H30.4688C31.0904 32.8125 31.6865 32.5656 32.126 32.126C32.5656 31.6865 32.8125 31.0904 32.8125 30.4688V21.0938H49.2188V25.7812C49.2188 26.4029 49.4657 26.999 49.9052 27.4385C50.3448 27.8781 50.9409 28.125 51.5625 28.125H65.625V39.8438C65.625 40.4654 65.8719 41.0615 66.3115 41.501C66.751 41.9406 67.3471 42.1875 67.9688 42.1875H72.6562V61.0547C66.8549 61.6377 61.4792 64.3621 57.5787 68.6959C53.6783 73.0297 51.5333 78.6617 51.5625 84.4922C51.564 86.0663 51.7211 87.6364 52.0313 89.1797H37.5C37.148 89.1813 36.8008 89.2622 36.4843 89.4164C36.1678 89.5706 35.8901 89.7941 35.6719 90.0703L30.4688 96.5156C29.718 96.2396 28.9249 96.0968 28.125 96.0938C26.7344 96.0937 25.3749 96.5061 24.2186 97.2787C23.0624 98.0513 22.1612 99.1495 21.629 100.434C21.0968 101.719 20.9576 103.133 21.2289 104.497C21.5002 105.861 22.1698 107.114 23.1532 108.097C24.1365 109.08 25.3893 109.75 26.7533 110.021C28.1172 110.292 29.5309 110.153 30.8157 109.621C32.1005 109.089 33.1987 108.188 33.9713 107.031C34.7439 105.875 35.1562 104.516 35.1562 103.125C35.1588 101.82 34.7844 100.542 34.0781 99.4453L38.625 93.75H53.5313C54.734 96.4966 56.4525 98.987 58.5938 101.086V118.406L52.8984 122.953C51.8013 122.247 50.5236 121.872 49.2188 121.875C47.8281 121.875 46.4687 122.287 45.3124 123.06C44.1561 123.833 43.2549 124.931 42.7227 126.216C42.1905 127.5 42.0513 128.914 42.3226 130.278C42.5939 131.642 43.2636 132.895 44.2469 133.878C45.2302 134.861 46.4831 135.531 47.847 135.802C49.2109 136.074 50.6247 135.934 51.9095 135.402C53.1943 134.87 54.2924 133.969 55.065 132.813C55.8376 131.656 56.25 130.297 56.25 128.906C56.2469 128.106 56.1042 127.313 55.8281 126.562L62.3906 121.312C62.6608 121.099 62.8806 120.829 63.0345 120.521C63.1885 120.213 63.2727 119.875 63.2812 119.531V104.648C66.1482 106.352 69.3431 107.431 72.6562 107.812V131.672C71.0925 132.225 69.7745 133.313 68.9352 134.743C68.096 136.174 67.7895 137.855 68.07 139.49C68.3505 141.125 69.1999 142.608 70.468 143.677C71.7361 144.746 73.3414 145.332 75 145.332C76.6586 145.332 78.2639 144.746 79.532 143.677C80.8001 142.608 81.6495 141.125 81.93 139.49C82.2105 137.855 81.904 136.174 81.0648 134.743C80.2255 133.313 78.9075 132.225 77.3438 131.672V107.812C80.6481 107.467 83.8425 106.429 86.7188 104.766V119.531C86.7204 119.883 86.8013 120.23 86.9555 120.547C87.1096 120.863 87.3332 121.141 87.6094 121.359L94.1719 126.562C93.8958 127.313 93.7531 128.106 93.75 128.906C93.75 130.297 94.1624 131.656 94.935 132.813C95.7076 133.969 96.8057 134.87 98.0905 135.402C99.3753 135.934 100.789 136.074 102.153 135.802C103.517 135.531 104.77 134.861 105.753 133.878C106.736 132.895 107.406 131.642 107.677 130.278C107.949 128.914 107.809 127.5 107.277 126.216C106.745 124.931 105.844 123.833 104.688 123.06C103.531 122.287 102.172 121.875 100.781 121.875C99.4764 121.872 98.1987 122.247 97.1016 122.953L91.4062 118.406V101.086C93.5475 98.987 95.266 96.4966 96.4687 93.75H111.375L115.922 99.4453C115.216 100.542 114.841 101.82 114.844 103.125C114.844 104.516 115.256 105.875 116.029 107.031C116.801 108.188 117.899 109.089 119.184 109.621C120.469 110.153 121.883 110.292 123.247 110.021C124.611 109.75 125.864 109.08 126.847 108.097C127.83 107.114 128.5 105.861 128.771 104.497C129.042 103.133 128.903 101.719 128.371 100.434C127.839 99.1495 126.938 98.0513 125.781 97.2787C124.625 96.5061 123.266 96.0938 121.875 96.0938C121.075 96.0968 120.282 96.2396 119.531 96.5156L114.281 89.9531C114.068 89.683 113.798 89.4631 113.49 89.3092C113.182 89.1553 112.844 89.0711 112.5 89.0625H97.9687C98.2789 87.5192 98.436 85.9491 98.4375 84.375C98.4376 78.5647 96.2794 72.9615 92.3818 68.6525C88.4842 64.3434 83.1249 61.6357 77.3438 61.0547V42.1875H82.0312C82.6529 42.1875 83.249 41.9406 83.6885 41.501C84.1281 41.0615 84.375 40.4654 84.375 39.8438V28.125H98.4375C99.0591 28.125 99.6552 27.8781 100.095 27.4385C100.534 26.999 100.781 26.4029 100.781 25.7812V21.0938H117.188V30.4688C117.188 31.0904 117.434 31.6865 117.874 32.126C118.314 32.5656 118.91 32.8125 119.531 32.8125H142.969C143.59 32.8125 144.186 32.5656 144.626 32.126C145.066 31.6865 145.312 31.0904 145.312 30.4688V7.03125C145.312 6.40965 145.066 5.81351 144.626 5.37397C144.186 4.93443 143.59 4.6875 142.969 4.6875ZM28.125 28.125H9.375V9.375H28.125V28.125ZM28.125 105.469C27.6615 105.469 27.2083 105.331 26.8229 105.074C26.4375 104.816 26.1371 104.45 25.9597 104.022C25.7823 103.594 25.7359 103.122 25.8263 102.668C25.9167 102.213 26.1399 101.795 26.4677 101.468C26.7955 101.14 27.2131 100.917 27.6678 100.826C28.1224 100.736 28.5937 100.782 29.0219 100.96C29.4502 101.137 29.8162 101.437 30.0738 101.823C30.3313 102.208 30.4688 102.661 30.4688 103.125C30.4688 103.747 30.2218 104.343 29.7823 104.782C29.3427 105.222 28.7466 105.469 28.125 105.469ZM49.2188 131.25C48.7552 131.25 48.3021 131.113 47.9166 130.855C47.5312 130.597 47.2308 130.231 47.0534 129.803C46.876 129.375 46.8296 128.904 46.92 128.449C47.0105 127.994 47.2337 127.577 47.5615 127.249C47.8892 126.921 48.3069 126.698 48.7615 126.608C49.2161 126.517 49.6874 126.564 50.1157 126.741C50.5439 126.918 50.91 127.219 51.1675 127.604C51.425 127.99 51.5625 128.443 51.5625 128.906C51.5625 129.528 51.3156 130.124 50.876 130.564C50.4365 131.003 49.8404 131.25 49.2188 131.25ZM100.781 126.562C101.245 126.562 101.698 126.7 102.083 126.957C102.469 127.215 102.769 127.581 102.947 128.009C103.124 128.438 103.17 128.909 103.08 129.363C102.99 129.818 102.766 130.236 102.439 130.564C102.111 130.891 101.693 131.115 101.238 131.205C100.784 131.295 100.313 131.249 99.8843 131.072C99.4561 130.894 99.09 130.594 98.8325 130.208C98.575 129.823 98.4375 129.37 98.4375 128.906C98.4375 128.285 98.6844 127.689 99.124 127.249C99.5635 126.809 100.16 126.562 100.781 126.562ZM124.219 103.125C124.219 103.589 124.081 104.042 123.824 104.427C123.566 104.813 123.2 105.113 122.772 105.29C122.344 105.468 121.872 105.514 121.418 105.424C120.963 105.333 120.545 105.11 120.218 104.782C119.89 104.455 119.667 104.037 119.576 103.582C119.486 103.128 119.532 102.656 119.71 102.228C119.887 101.8 120.187 101.434 120.573 101.176C120.958 100.919 121.411 100.781 121.875 100.781C122.497 100.781 123.093 101.028 123.532 101.468C123.972 101.907 124.219 102.503 124.219 103.125ZM75 140.625C74.5365 140.625 74.0833 140.488 73.6979 140.23C73.3125 139.972 73.0121 139.606 72.8347 139.178C72.6573 138.75 72.6109 138.279 72.7013 137.824C72.7917 137.369 73.0149 136.952 73.3427 136.624C73.6705 136.296 74.0881 136.073 74.5428 135.983C74.9974 135.892 75.4686 135.939 75.8969 136.116C76.3252 136.293 76.6912 136.594 76.9488 136.979C77.2063 137.365 77.3438 137.818 77.3438 138.281C77.3438 138.903 77.0968 139.499 76.6573 139.939C76.2177 140.378 75.6216 140.625 75 140.625ZM93.75 84.375C93.75 88.0834 92.6503 91.7085 90.5901 94.7919C88.5298 97.8754 85.6014 100.279 82.1753 101.698C78.7492 103.117 74.9792 103.488 71.3421 102.765C67.7049 102.041 64.364 100.255 61.7417 97.6332C59.1195 95.011 57.3337 91.6701 56.6103 88.0329C55.8868 84.3958 56.2581 80.6258 57.6773 77.1997C59.0964 73.7736 61.4996 70.8452 64.5831 68.7849C67.6665 66.7247 71.2916 65.625 75 65.625C79.9728 65.625 84.7419 67.6004 88.2582 71.1167C91.7746 74.6331 93.75 79.4022 93.75 84.375ZM96.0938 23.4375H82.0312C81.4096 23.4375 80.8135 23.6844 80.374 24.124C79.9344 24.5635 79.6875 25.1596 79.6875 25.7812V37.5H70.3125V25.7812C70.3125 25.1596 70.0656 24.5635 69.626 24.124C69.1865 23.6844 68.5904 23.4375 67.9688 23.4375H53.9062V14.0625H96.0938V23.4375ZM140.625 28.125H121.875V9.375H140.625V28.125Z" fill="black"/>
</svg>
