<svg width="22" height="22" viewBox="0 0 22 22" fill="none" xmlns="http://www.w3.org/2000/svg">
<g clip-path="url(#clip0_3045_2685)">
<path d="M3.85673 6.00055C4.13814 6.00055 4.41678 5.94513 4.67677 5.83744C4.93675 5.72975 5.17298 5.57191 5.37196 5.37292C5.57094 5.17394 5.72878 4.93772 5.83647 4.67773C5.94416 4.41775 5.99959 4.1391 5.99959 3.8577C5.99959 3.57629 5.94416 3.29764 5.83647 3.03766C5.72878 2.77768 5.57094 2.54145 5.37196 2.34247C5.17298 2.14348 4.93675 1.98564 4.67677 1.87795C4.41678 1.77027 4.13814 1.71484 3.85673 1.71484C3.28841 1.71484 2.74337 1.9406 2.3415 2.34247C1.93964 2.74433 1.71387 3.28938 1.71387 3.8577C1.71387 4.42602 1.93964 4.97106 2.3415 5.37292C2.74337 5.77479 3.28841 6.00055 3.85673 6.00055Z" stroke="black" stroke-width="1.5" stroke-linecap="round" stroke-linejoin="round"/>
<path d="M6 3.85742H20.2857" stroke="black" stroke-width="1.5" stroke-linecap="round" stroke-linejoin="round"/>
<path d="M11.0002 13.1431C11.2816 13.1431 11.5603 13.0877 11.8203 12.98C12.0803 12.8723 12.3165 12.7145 12.5155 12.5155C12.7144 12.3165 12.8723 12.0803 12.98 11.8203C13.0877 11.5603 13.1431 11.2817 13.1431 11.0003C13.1431 10.7189 13.0877 10.4402 12.98 10.1803C12.8723 9.92026 12.7144 9.68403 12.5155 9.48505C12.3165 9.28607 12.0803 9.12823 11.8203 9.02054C11.5603 8.91285 11.2816 8.85742 11.0002 8.85742C10.4319 8.85742 9.88691 9.08319 9.48505 9.48505C9.08318 9.88691 8.85742 10.432 8.85742 11.0003C8.85742 11.5686 9.08318 12.1137 9.48505 12.5155C9.88691 12.9174 10.4319 13.1431 11.0002 13.1431Z" stroke="black" stroke-width="1.5" stroke-linecap="round" stroke-linejoin="round"/>
<path d="M1.71387 11H8.85673" stroke="black" stroke-width="1.5" stroke-linecap="round" stroke-linejoin="round"/>
<path d="M13.1426 11H20.2854" stroke="black" stroke-width="1.5" stroke-linecap="round" stroke-linejoin="round"/>
<path d="M18.1429 20.2857C18.7112 20.2857 19.2562 20.0599 19.6581 19.6581C20.0599 19.2562 20.2857 18.7112 20.2857 18.1429C20.2857 17.5745 20.0599 17.0295 19.6581 16.6276C19.2562 16.2258 18.7112 16 18.1429 16C17.5745 16 17.0295 16.2258 16.6276 16.6276C16.2258 17.0295 16 17.5745 16 18.1429C16 18.7112 16.2258 19.2562 16.6276 19.6581C17.0295 20.0599 17.5745 20.2857 18.1429 20.2857Z" stroke="black" stroke-width="1.5" stroke-linecap="round" stroke-linejoin="round"/>
<path d="M15.9996 18.1426H1.71387" stroke="black" stroke-width="1.5" stroke-linecap="round" stroke-linejoin="round"/>
</g>
<defs>
<clipPath id="clip0_3045_2685">
<rect width="22" height="22" fill="white"/>
</clipPath>
</defs>
</svg>
