<svg width="50" height="34" viewBox="0 0 50 34" fill="none" xmlns="http://www.w3.org/2000/svg">
<path d="M0.283707 16.0749L10.2388 5.01372C10.4511 4.77922 10.7476 4.64648 11.0617 4.64648H17.6984C18.1342 4.64648 18.5302 4.9031 18.7094 5.30131C18.8864 5.70172 18.8134 6.1685 18.5214 6.49149L9.2322 16.8138L18.5214 27.1339C18.8134 27.4591 18.8886 27.9258 18.7094 28.324C18.5302 28.7245 18.1342 28.9811 17.6984 28.9811H11.0617C10.7476 28.9811 10.4511 28.8461 10.2388 28.6161L0.283707 17.5549C-0.0945855 17.1346 -0.0945855 16.493 0.283707 16.0749Z" fill="white"/>
<path d="M31.4779 15.8542L41.433 4.79301C41.6454 4.55852 41.9418 4.42578 42.2559 4.42578H48.8926C49.3284 4.42578 49.7244 4.6824 49.9036 5.0806C50.0806 5.48102 50.0076 5.9478 49.7156 6.27079L40.4264 16.5931L49.7156 26.9132C50.0076 27.2383 50.0828 27.7051 49.9036 28.1033C49.7244 28.5037 49.3284 28.7604 48.8926 28.7604H42.2559C41.9418 28.7604 41.6454 28.6254 41.433 28.3953L31.4779 17.3342C31.0996 16.9138 31.0996 16.2723 31.4779 15.8542Z" fill="#B24040"/>
<g clip-path="url(#clip0_2994_2770)">
<path d="M16.4347 15.8542L26.3897 4.79301C26.6021 4.55852 26.8986 4.42578 27.2127 4.42578H33.8494C34.2852 4.42578 34.6812 4.6824 34.8604 5.0806C35.0374 5.48102 34.9644 5.9478 34.6723 6.27079L25.3832 16.5931L34.6723 26.9132C34.9644 27.2384 35.0396 27.7051 34.8604 28.1033C34.6812 28.5037 34.2852 28.7604 33.8494 28.7604H27.2127C26.8986 28.7604 26.6021 28.6254 26.3897 28.3953L16.4347 17.3342C16.0564 16.9138 16.0564 16.2723 16.4347 15.8542Z" fill="#CC8080"/>
</g>
<defs>
<clipPath id="clip0_2994_2770">
<rect width="33.1853" height="33.1853" fill="white" transform="matrix(-1 0 0 1 49.3363 0)"/>
</clipPath>
</defs>
</svg>
