<svg width="22" height="22" viewBox="0 0 22 22" fill="none" xmlns="http://www.w3.org/2000/svg">
<g clip-path="url(#clip0_3045_2693)">
<path d="M10.2783 11.0137H20.2783" stroke="black" stroke-width="1.5" stroke-linecap="round" stroke-linejoin="round"/>
<path d="M17.4219 8.15625L20.2791 11.0134L17.4219 13.8705" stroke="black" stroke-width="1.5" stroke-linecap="round" stroke-linejoin="round"/>
<path d="M17.707 17.4292C16.4242 18.7662 14.7708 19.689 12.9593 20.0786C11.1478 20.4683 9.2611 20.3071 7.54197 19.6158C5.82284 18.9245 4.34984 17.7347 3.31244 16.1994C2.27505 14.6641 1.7207 12.8535 1.7207 11.0006C1.7207 9.14764 2.27505 7.33708 3.31244 5.80178C4.34984 4.26648 5.82284 3.07665 7.54197 2.38534C9.2611 1.69402 11.1478 1.53284 12.9593 1.92252C14.7708 2.3122 16.4242 3.23492 17.707 4.572" stroke="black" stroke-width="1.5" stroke-linecap="round" stroke-linejoin="round"/>
</g>
<defs>
<clipPath id="clip0_3045_2693">
<rect width="22" height="22" fill="white"/>
</clipPath>
</defs>
</svg>
